<svg width="40" height="41" viewBox="0 0 40 41" fill="none" xmlns="http://www.w3.org/2000/svg">
<path opacity="0.3" d="M36.6693 17.167V28.8337C36.6693 30.1597 36.1425 31.4315 35.2048 32.3692C34.2671 33.3069 32.9954 33.8337 31.6693 33.8337H8.33594C7.00986 33.8337 5.73809 33.3069 4.8004 32.3692C3.86272 31.4315 3.33594 30.1597 3.33594 28.8337V17.167H36.6693Z" fill="#FD69B0"/>
<path d="M31.6693 7.16699C32.9954 7.16699 34.2671 7.69378 35.2048 8.63146C36.1425 9.56914 36.6693 10.8409 36.6693 12.167V13.8337H3.33594V12.167C3.33594 10.8409 3.86272 9.56914 4.8004 8.63146C5.73809 7.69378 7.00986 7.16699 8.33594 7.16699H31.6693ZM30.0026 23.8337H25.0026C24.5606 23.8337 24.1367 24.0093 23.8241 24.3218C23.5115 24.6344 23.3359 25.0583 23.3359 25.5003C23.3359 25.9424 23.5115 26.3663 23.8241 26.6788C24.1367 26.9914 24.5606 27.167 25.0026 27.167H30.0026C30.4446 27.167 30.8686 26.9914 31.1811 26.6788C31.4937 26.3663 31.6693 25.9424 31.6693 25.5003C31.6693 25.0583 31.4937 24.6344 31.1811 24.3218C30.8686 24.0093 30.4446 23.8337 30.0026 23.8337Z" fill="#FD69B0"/>
</svg>
