<svg width="40" height="41" viewBox="0 0 40 41" fill="none" xmlns="http://www.w3.org/2000/svg">
<path fill-rule="evenodd" clip-rule="evenodd" d="M6.66406 5.50016C6.66406 5.05814 6.83966 4.63421 7.15222 4.32165C7.46478 4.00909 7.8887 3.8335 8.33073 3.8335H31.6641C32.1061 3.8335 32.53 4.00909 32.8426 4.32165C33.1551 4.63421 33.3307 5.05814 33.3307 5.50016V35.5002C33.3307 35.8188 33.2394 36.1307 33.0676 36.399C32.8958 36.6673 32.6507 36.8808 32.3613 37.0141C32.0719 37.1474 31.7504 37.1949 31.4348 37.1511C31.1193 37.1073 30.8228 36.9739 30.5807 36.7668L28.8591 35.2918C28.5571 35.0332 28.1725 34.891 27.7749 34.891C27.3773 34.891 26.9927 35.0332 26.6907 35.2918L24.9707 36.7652C24.6686 37.0243 24.2837 37.1667 23.8857 37.1667C23.4877 37.1667 23.1028 37.0243 22.8007 36.7652L21.0824 35.2918C20.7803 35.0327 20.3954 34.8903 19.9974 34.8903C19.5994 34.8903 19.2145 35.0327 18.9124 35.2918L17.1941 36.7652C16.8919 37.0243 16.5071 37.1667 16.1091 37.1667C15.7111 37.1667 15.3262 37.0243 15.0241 36.7652L13.3041 35.2918C13.0021 35.0332 12.6175 34.891 12.2199 34.891C11.8223 34.891 11.4377 35.0332 11.1357 35.2918L9.41573 36.7652C9.17376 36.9727 8.87734 37.1065 8.56164 37.1506C8.24594 37.1948 7.9242 37.1475 7.63457 37.0143C7.34493 36.8812 7.09956 36.6678 6.92755 36.3994C6.75553 36.131 6.66409 35.8189 6.66406 35.5002V5.50016ZM14.9974 10.5002C14.5554 10.5002 14.1314 10.6758 13.8189 10.9883C13.5063 11.3009 13.3307 11.7248 13.3307 12.1668C13.3307 12.6089 13.5063 13.0328 13.8189 13.3453C14.1314 13.6579 14.5554 13.8335 14.9974 13.8335H24.9974C25.4394 13.8335 25.8633 13.6579 26.1759 13.3453C26.4885 13.0328 26.6641 12.6089 26.6641 12.1668C26.6641 11.7248 26.4885 11.3009 26.1759 10.9883C25.8633 10.6758 25.4394 10.5002 24.9974 10.5002H14.9974ZM14.9974 17.1668C14.5554 17.1668 14.1314 17.3424 13.8189 17.655C13.5063 17.9675 13.3307 18.3915 13.3307 18.8335C13.3307 19.2755 13.5063 19.6994 13.8189 20.012C14.1314 20.3246 14.5554 20.5002 14.9974 20.5002H24.9974C25.4394 20.5002 25.8633 20.3246 26.1759 20.012C26.4885 19.6994 26.6641 19.2755 26.6641 18.8335C26.6641 18.3915 26.4885 17.9675 26.1759 17.655C25.8633 17.3424 25.4394 17.1668 24.9974 17.1668H14.9974ZM16.6641 25.5002C16.6641 25.0581 16.8397 24.6342 17.1522 24.3217C17.4648 24.0091 17.8887 23.8335 18.3307 23.8335H24.9974C25.4394 23.8335 25.8633 24.0091 26.1759 24.3217C26.4885 24.6342 26.6641 25.0581 26.6641 25.5002C26.6641 25.9422 26.4885 26.3661 26.1759 26.6787C25.8633 26.9912 25.4394 27.1668 24.9974 27.1668H18.3307C17.8887 27.1668 17.4648 26.9912 17.1522 26.6787C16.8397 26.3661 16.6641 25.9422 16.6641 25.5002Z" fill="#94DC99"/>
</svg>
