<svg width="40" height="41" viewBox="0 0 40 41" fill="none" xmlns="http://www.w3.org/2000/svg">
<g clip-path="url(#clip0_2321_5636)">
<path d="M19.5454 2.01238L3.24538 10.4155C2.88913 10.6249 2.78601 10.9374 2.78913 11.3905L2.82038 11.9561L20.0298 20.7811L37.1985 12.0968C37.1985 12.0968 37.2173 12.0093 37.2173 11.703C37.2173 11.703 37.2016 11.2999 37.111 11.1124C37.011 10.8999 36.7985 10.7093 36.661 10.5936C36.2954 10.2905 35.9298 10.0218 35.3079 9.67176C26.3923 4.63113 20.5298 2.03426 20.5298 2.03426C20.1516 1.89363 19.8391 1.84363 19.5454 2.01238Z" fill="#DEA66C"/>
<path d="M3.04062 30.5501C3.99062 31.1783 5.725 32.0033 7.47813 32.9533C11.5531 35.1595 16.7031 37.8408 19.2656 38.8939C19.6125 39.0376 19.8187 39.1064 20.0594 39.1189C20.2375 39.1283 20.5312 39.0095 20.5312 39.0095C20.5312 39.0095 20.0531 21.7626 20.025 20.7783C19.9969 19.8158 19.5938 19.497 19.2375 19.2658C18.6812 18.9095 17.475 18.3533 17.475 18.3533C17.475 18.3533 13.25 16.2533 9.03125 14.0408C7.025 12.9876 5.33125 11.9095 3.50937 11.022C3.175 10.8626 2.78125 11.0626 2.78125 11.4376V30.1251C2.78125 30.3033 2.89062 30.4533 3.04062 30.5501Z" fill="#B38251"/>
<path d="M36.7425 30.6593L20.5675 39C20.3081 39.1343 19.9987 38.9468 19.9987 38.6531L20.0269 20.7843C20.0269 20.6125 19.9737 20.2343 19.9206 20.0843C19.7737 19.6468 20.0925 19.4718 20.2362 19.4L36.28 11.1375C36.705 10.9187 37.2143 11.2281 37.2143 11.7062V29.8906C37.2143 30.2125 37.0331 30.5093 36.7425 30.6593Z" fill="#966239"/>
<path opacity="0.5" d="M29.5193 15.3721C29.5193 15.3721 20.6537 19.9065 20.51 20.2909C20.3662 20.6721 27.4662 17.2596 28.2975 16.8315C29.2381 16.3471 36.6256 12.3971 36.6256 11.9627C36.6287 11.6065 29.5193 15.3721 29.5193 15.3721Z" fill="#212121"/>
<g opacity="0.5">
<path d="M4 29.5156C5.15313 30.0969 6.29687 30.6969 7.72187 31.425V30.8688C6.30312 30.1438 5.15625 29.5469 4 28.9594V29.5156ZM6.42812 29.7688C6.75312 29.9344 6.91563 30.0188 7.22188 30.175C7.225 29.2063 7.225 28.7219 7.22812 27.7531C6.92187 27.5969 6.7625 27.5156 6.44063 27.35C6.43438 28.3187 6.43125 28.8 6.42812 29.7688ZM4.40937 28.7312C4.67812 28.8687 4.82812 28.9469 5.13438 29.1031L5.15 26.6906C4.84062 26.5312 4.69062 26.4562 4.41875 26.3125C4.41562 27.2812 4.4125 27.7656 4.40937 28.7312Z" fill="#212121"/>
<path d="M5.91875 27.3721C6.65938 27.7502 7.05313 27.9533 7.70625 28.2846C7.38125 27.6939 7.20313 27.3939 6.84688 26.7877C6.48125 27.0252 6.29063 27.1408 5.91875 27.3721ZM4 26.3877C4.55313 26.6752 4.925 26.8658 5.65625 27.2408C5.29375 26.6314 5.1125 26.3283 4.77812 25.7314C4.4375 25.9783 4.27813 26.1064 4 26.3877Z" fill="#212121"/>
</g>
<g opacity="0.5">
<path d="M9.94375 32.1875C10.2031 32.3219 10.3375 32.3937 10.5969 32.5281C10.5781 31.3781 10.5688 30.8031 10.5469 29.6531C10.2969 29.5219 10.1719 29.4562 9.92188 29.3281C9.93125 30.4719 9.93437 31.0438 9.94375 32.1875Z" fill="#212121"/>
<path d="M8.98906 31.9842C9.93906 32.4842 10.6766 32.8592 11.5891 33.3467C11.5828 33.0186 11.3297 32.6217 10.9859 32.4373C10.4484 32.1529 10.1422 31.9967 9.59844 31.7123C9.24844 31.5342 8.98906 31.6623 8.98906 31.9842ZM10.7984 28.7373L11.1984 29.5842C11.0734 29.8498 11.0078 29.9842 10.8766 30.2467C10.9891 30.2373 11.0453 30.2342 11.1578 30.2248C11.3078 30.0248 11.3828 29.9248 11.5266 29.7248C11.3953 29.4154 11.3266 29.2592 11.1891 28.9498C11.5703 29.1592 11.7578 29.2654 12.1047 29.4686C12.1047 30.5873 11.3734 31.0811 10.2734 30.5061C9.17344 29.9342 8.44531 28.6561 8.44531 27.5342C9.26406 27.9436 9.81406 28.2123 10.7984 28.7373Z" fill="#212121"/>
</g>
<path d="M31.4844 13.4657C31.3281 13.3501 14.55 4.58447 14.55 4.58447L9.34375 7.2751L26.5469 16.147L26.5563 16.1563L31.5906 13.5782C31.5906 13.5782 31.5812 13.5532 31.5531 13.522C31.5312 13.5032 31.4937 13.4751 31.4844 13.4657Z" fill="#FFE0B2"/>
<path d="M31.5609 13.5405C28.7109 14.9437 26.5422 16.1468 26.5422 16.1468C26.6141 16.2187 26.6172 16.3124 26.6172 16.3593C26.6078 16.7218 26.6016 17.0093 26.5922 17.3687C26.5484 19.228 26.5234 21.0905 26.4609 22.9499C26.6703 22.8249 26.9234 23.0999 27.1141 22.9499C27.4078 22.7187 28.0328 21.6999 28.1266 21.6687C28.2516 21.628 28.3859 21.6593 28.5141 21.653C29.0766 21.6218 30.3359 20.4749 30.6047 20.4218C30.8641 20.3718 31.7203 20.5374 31.7203 20.5374C31.7203 20.5374 31.6609 14.8655 31.6391 13.9124C31.6328 13.5749 31.5609 13.5405 31.5609 13.5405Z" fill="#BF9F85"/>
</g>
<defs>
<clipPath id="clip0_2321_5636">
<rect width="40" height="40" fill="white" transform="translate(0 0.5)"/>
</clipPath>
</defs>
</svg>
