<svg width="40" height="41" viewBox="0 0 40 41" fill="none" xmlns="http://www.w3.org/2000/svg">
<path d="M4.16406 16.3335H35.8307V32.1668H4.16406V16.3335Z" fill="#CFD8DC"/>
<path d="M4.16406 32.1665H35.8307V35.4998H4.16406V32.1665Z" fill="#B0BEC5"/>
<path d="M22.5 20.5H32.5V35.5H22.5V20.5Z" fill="#455A64"/>
<path d="M7.5 20.5H19.1667V29.6667H7.5V20.5Z" fill="#E3F2FD"/>
<path d="M8.33594 21.3335H18.3359V28.8335H8.33594V21.3335Z" fill="#1E88E5"/>
<path d="M30.4167 28.4165C30.1667 28.4165 30 28.5832 30 28.8332V30.4998C30 30.7498 30.1667 30.9165 30.4167 30.9165C30.6667 30.9165 30.8333 30.7498 30.8333 30.4998V28.8332C30.8333 28.5832 30.6667 28.4165 30.4167 28.4165Z" fill="#90A4AE"/>
<path d="M20 18.8335C21.3807 18.8335 22.5 17.7142 22.5 16.3335C22.5 14.9528 21.3807 13.8335 20 13.8335C18.6193 13.8335 17.5 14.9528 17.5 16.3335C17.5 17.7142 18.6193 18.8335 20 18.8335Z" fill="#558B2F"/>
<path d="M30 18.8335C31.3807 18.8335 32.5 17.7142 32.5 16.3335C32.5 14.9528 31.3807 13.8335 30 13.8335C28.6193 13.8335 27.5 14.9528 27.5 16.3335C27.5 17.7142 28.6193 18.8335 30 18.8335Z" fill="#558B2F"/>
<path d="M10 18.8335C11.3807 18.8335 12.5 17.7142 12.5 16.3335C12.5 14.9528 11.3807 13.8335 10 13.8335C8.61929 13.8335 7.5 14.9528 7.5 16.3335C7.5 17.7142 8.61929 18.8335 10 18.8335Z" fill="#558B2F"/>
<path d="M33.3333 5.5H6.66667C5.75 5.5 5 6.25 5 7.16667V9.66667H35V7.16667C35 6.25 34.25 5.5 33.3333 5.5ZM17.5 9.66667H22.5V16.3333H17.5V9.66667ZM30.8333 9.66667H26.6667L27.5 16.3333H32.5L30.8333 9.66667ZM9.16667 9.66667H13.3333L12.5 16.3333H7.5L9.16667 9.66667Z" fill="#7CB342"/>
<path d="M25 18.8335C26.3807 18.8335 27.5 17.7142 27.5 16.3335C27.5 14.9528 26.3807 13.8335 25 13.8335C23.6193 13.8335 22.5 14.9528 22.5 16.3335C22.5 17.7142 23.6193 18.8335 25 18.8335Z" fill="#FFA000"/>
<path d="M37.5 16.3335C37.5 17.7502 36.4167 18.8335 35 18.8335C33.5833 18.8335 32.5 17.7502 32.5 16.3335C32.5 14.9168 33.5833 13.8335 35 13.8335L37.5 16.3335Z" fill="#FFA000"/>
<path d="M15 18.8335C16.3807 18.8335 17.5 17.7142 17.5 16.3335C17.5 14.9528 16.3807 13.8335 15 13.8335C13.6193 13.8335 12.5 14.9528 12.5 16.3335C12.5 17.7142 13.6193 18.8335 15 18.8335Z" fill="#FFA000"/>
<path d="M2.5 16.3335C2.5 17.7502 3.58333 18.8335 5 18.8335C6.41667 18.8335 7.5 17.7502 7.5 16.3335C7.5 14.9168 6.41667 13.8335 5 13.8335L2.5 16.3335Z" fill="#FFA000"/>
<path d="M26.6667 9.6665H22.5V16.3332H27.5L26.6667 9.6665ZM35 9.6665H30.8333L32.5 16.3332H37.5L35 9.6665ZM13.3333 9.6665H17.5V16.3332H12.5L13.3333 9.6665ZM5 9.6665H9.16667L7.5 16.3332H2.5L5 9.6665Z" fill="#FFC107"/>
</svg>
